<?xml version="1.0" encoding="UTF-8" standalone="no"?>
<svg
   xmlns:dc="http://purl.org/dc/elements/1.1/"
   xmlns:cc="http://creativecommons.org/ns#"
   xmlns:rdf="http://www.w3.org/1999/02/22-rdf-syntax-ns#"
   xmlns:svg="http://www.w3.org/2000/svg"
   xmlns="http://www.w3.org/2000/svg"
   xmlns:sodipodi="http://sodipodi.sourceforge.net/DTD/sodipodi-0.dtd"
   xmlns:inkscape="http://www.inkscape.org/namespaces/inkscape"
   version="1.1"
   id="mdi-microphone"
   width="24"
   height="24"
   viewBox="0 0 24 24"
   sodipodi:docname="microphone-event.svg"
   inkscape:version="0.92.5 (2060ec1f9f, 2020-04-08)">
  <metadata
     id="metadata9">
    <rdf:RDF>
      <cc:Work
         rdf:about="">
        <dc:format>image/svg+xml</dc:format>
        <dc:type
           rdf:resource="http://purl.org/dc/dcmitype/StillImage" />
        <dc:title></dc:title>
      </cc:Work>
    </rdf:RDF>
  </metadata>
  <defs
     id="defs7" />
  <sodipodi:namedview
     pagecolor="#ffffff"
     bordercolor="#666666"
     borderopacity="1"
     objecttolerance="10"
     gridtolerance="10"
     guidetolerance="10"
     inkscape:pageopacity="0"
     inkscape:pageshadow="2"
     inkscape:window-width="3840"
     inkscape:window-height="2050"
     id="namedview5"
     showgrid="false"
     inkscape:snap-page="true"
     inkscape:zoom="30.625"
     inkscape:cx="0.47346939"
     inkscape:cy="12"
     inkscape:window-x="1920"
     inkscape:window-y="54"
     inkscape:window-maximized="1"
     inkscape:current-layer="mdi-microphone" />
  <circle
     style="fill:#cea695;stroke-width:6.879;stroke-linecap:round;stroke-miterlimit:10;stop-color:#000000;fill-opacity:1"
     id="path834"
     cx="12.027039"
     cy="12.027039"
     r="11.898659" />
  <path
     d="M 20.608163,0.52886323 A 1.2157435,1.2157435 0 0 1 21.823906,1.7446066 V 4.1760934 A 1.2157435,1.2157435 0 0 1 20.608163,5.3918368 1.2157435,1.2157435 0 0 1 19.392419,4.1760934 V 1.7446066 a 1.2157435,1.2157435 0 0 1 1.215744,-1.21574337 m 2.836735,3.64723017 c 0,1.430525 -1.057698,2.6097957 -2.431487,2.8083674 V 8.2285716 H 20.202915 V 6.9844608 C 18.829125,6.7858891 17.771428,5.6066184 17.771428,4.1760934 h 0.810495 a 2.0262391,2.0262391 0 0 0 2.02624,2.0262395 2.0262391,2.0262391 0 0 0 2.026239,-2.0262395 z"
     id="path2"
     inkscape:connector-curvature="0"
     style="stroke-width:0.40524781" />
  <path
     id="path914"
     d="m 11.053969,15.301346 h 2.737366 v 2.737367 h -2.737366 v -2.737367 m 0,-10.949461 h 2.737366 V 12.56398 H 11.053969 V 4.351885"
     inkscape:connector-curvature="0"
     style="stroke-width:1.36868274"
     sodipodi:nodetypes="cccccccccc" />
</svg>
