<?xml version="1.0" encoding="UTF-8" standalone="no"?>
<svg
   xmlns:dc="http://purl.org/dc/elements/1.1/"
   xmlns:cc="http://creativecommons.org/ns#"
   xmlns:rdf="http://www.w3.org/1999/02/22-rdf-syntax-ns#"
   xmlns:svg="http://www.w3.org/2000/svg"
   xmlns="http://www.w3.org/2000/svg"
   xmlns:sodipodi="http://sodipodi.sourceforge.net/DTD/sodipodi-0.dtd"
   xmlns:inkscape="http://www.inkscape.org/namespaces/inkscape"
   version="1.1"
   id="mdi-microphone"
   width="24"
   height="24"
   viewBox="0 0 24 24"
   sodipodi:docname="microphone.svg"
   inkscape:version="1.0.2 (394de47547, 2021-03-26)">
  <metadata
     id="metadata9">
    <rdf:RDF>
      <cc:Work
         rdf:about="">
        <dc:format>image/svg+xml</dc:format>
        <dc:type
           rdf:resource="http://purl.org/dc/dcmitype/StillImage" />
      </cc:Work>
    </rdf:RDF>
  </metadata>
  <defs
     id="defs7" />
  <sodipodi:namedview
     pagecolor="#ffffff"
     bordercolor="#666666"
     borderopacity="1"
     objecttolerance="10"
     gridtolerance="10"
     guidetolerance="10"
     inkscape:pageopacity="0"
     inkscape:pageshadow="2"
     inkscape:window-width="1920"
     inkscape:window-height="1052"
     id="namedview5"
     showgrid="false"
     inkscape:snap-page="true"
     inkscape:zoom="30.625"
     inkscape:cx="12"
     inkscape:cy="12"
     inkscape:window-x="1920"
     inkscape:window-y="0"
     inkscape:window-maximized="1"
     inkscape:current-layer="mdi-microphone" />
  <circle
     style="fill:#f66151;stroke-width:6.879;stroke-linecap:round;stroke-miterlimit:10;stop-color:#000000"
     id="path834"
     cx="12.027039"
     cy="12.027039"
     r="11.898659" />
  <path
     d="M12,2A3,3 0 0,1 15,5V11A3,3 0 0,1 12,14A3,3 0 0,1 9,11V5A3,3 0 0,1 12,2M19,11C19,14.53 16.39,17.44 13,17.93V21H11V17.93C7.61,17.44 5,14.53 5,11H7A5,5 0 0,0 12,16A5,5 0 0,0 17,11H19Z"
     id="path2" />
</svg>
