<?xml version="1.0" encoding="UTF-8" standalone="no"?>
<svg
   xmlns:dc="http://purl.org/dc/elements/1.1/"
   xmlns:cc="http://creativecommons.org/ns#"
   xmlns:rdf="http://www.w3.org/1999/02/22-rdf-syntax-ns#"
   xmlns:svg="http://www.w3.org/2000/svg"
   xmlns="http://www.w3.org/2000/svg"
   xmlns:sodipodi="http://sodipodi.sourceforge.net/DTD/sodipodi-0.dtd"
   xmlns:inkscape="http://www.inkscape.org/namespaces/inkscape"
   version="1.1"
   id="svg2"
   xml:space="preserve"
   width="124.78361"
   height="141.01279"
   viewBox="0 0 124.78361 141.01279"
   sodipodi:docname="pepper-top.svg"
   inkscape:version="1.0.1 (0767f8302a, 2020-10-17)"><metadata
     id="metadata8"><rdf:RDF><cc:Work
         rdf:about=""><dc:format>image/svg+xml</dc:format><dc:type
           rdf:resource="http://purl.org/dc/dcmitype/StillImage" /><dc:title></dc:title></cc:Work></rdf:RDF></metadata><defs
     id="defs6" /><sodipodi:namedview
     pagecolor="#ffffff"
     bordercolor="#666666"
     borderopacity="1"
     objecttolerance="10"
     gridtolerance="10"
     guidetolerance="10"
     inkscape:pageopacity="0"
     inkscape:pageshadow="2"
     inkscape:window-width="1920"
     inkscape:window-height="1052"
     id="namedview4"
     showgrid="false"
     fit-margin-top="0"
     fit-margin-left="0"
     fit-margin-right="0"
     fit-margin-bottom="0"
     inkscape:zoom="1.2994593"
     inkscape:cx="27.507961"
     inkscape:cy="37.64575"
     inkscape:window-x="2048"
     inkscape:window-y="0"
     inkscape:window-maximized="1"
     inkscape:current-layer="g12" /><g
     id="g10"
     inkscape:groupmode="layer"
     inkscape:label="setup"
     transform="matrix(1.3333333,0,0,1.3333333,-314.1993,-143.04283)"><g
       id="g12"><g
         id="g1146"
         transform="rotate(19.835572,294.75687,147.7932)"><g
           id="g26"
           transform="matrix(-1,0.351434,-0.351434,-1,0,0)"><path
             d="m -227.611,-282.189 c 4.662,1.286 12.642,10.79 16,13.15 3.36,2.356 26.632,14.82 30.724,15.723 4.098,0.901 17.871,6.371 17.76,18.468 -0.111,12.098 -15.331,15.437 -18.33,18.613 0,0 -23.539,8.927 -28.58,13.866 -5.039,4.936 -10.192,11.184 -17.003,13.435 -6.809,2.248 -12.116,-0.281 -14.654,-2.818 -2.541,-2.541 -4.105,-6.048 -4.105,-9.939 0,0 2.626,-18.62 2.628,-33.154 0,-14.539 -2.628,-33.158 -2.628,-33.158 -0.309,-3.878 1.565,-7.399 4.102,-9.938 2.541,-2.54 9.425,-5.535 14.086,-4.248 z"
             style="fill:none;stroke:#2e3436;stroke-width:5.34861;stroke-linecap:square;stroke-linejoin:bevel;stroke-miterlimit:4;stroke-dasharray:none;stroke-opacity:1"
             id="path28" /></g><path
           d="m 326.781,202.199 c -5.113,0.352 -16.433,-6.347 -20.621,-7.527 -4.187,-1.176 -31.84,-5.461 -36.25,-4.926 -4.414,0.539 -20.109,-0.09 -24.25,-12.226 -4.14,-12.137 9.906,-20.825 11.789,-25.055 0,0 20.403,-17.199 23.707,-23.91 3.305,-6.707 6.262,-14.766 12.282,-19.41 6.019,-4.641 12.214,-3.977 15.644,-2.333 3.434,1.649 6.23,4.606 7.598,8.497 0,0 3.918,19.543 9.023,34.078 5.109,14.539 14.281,32.234 14.281,32.234 1.672,3.77 1.036,7.949 -0.609,11.379 -1.648,3.434 -7.48,8.848 -12.594,9.199 z"
           style="fill:#ffffff;fill-opacity:1;fill-rule:nonzero;stroke:none"
           id="path30" /><g
           id="g32"
           transform="matrix(-1,0.351434,-0.351434,-1,0,0)"><path
             d="m -205.282,-264.561 11.193,-0.051 c 1.561,-0.006 4.483,3.529 4.482,5.087 0.002,1.563 -0.35,1.451 -1.904,1.351 l -16.499,-1.06 c -1.557,-0.103 -4.889,0.664 -4.889,-0.894 0.002,-1.562 6.056,-4.427 7.617,-4.433 z"
             style="fill:none;stroke:#2e3436;stroke-width:5.34861;stroke-linecap:square;stroke-linejoin:bevel;stroke-miterlimit:4;stroke-dasharray:none;stroke-opacity:1"
             id="path34" /></g><path
           d="m 298.258,192.418 -11.176,3.984 c -1.559,0.555 -5.723,-1.953 -6.27,-3.511 -0.55,-1.563 -0.16,-1.575 1.43,-2.02 l 16.871,-4.738 c 1.594,-0.445 4.657,-2.383 5.203,-0.824 0.547,1.562 -4.5,6.554 -6.058,7.109 z"
           style="fill:#ffffff;fill-opacity:1;fill-rule:nonzero;stroke:none"
           id="path36" /><g
           id="g38"
           transform="matrix(-1,0.351434,-0.351434,-1,0,0)"><path
             d="m -205.283,-205.882 11.193,0.051 c 1.561,0.006 4.483,-3.53 4.484,-5.088 0,-1.559 -0.35,-1.451 -1.905,-1.349 l -16.498,1.061 c -1.559,0.101 -4.888,-0.663 -4.889,0.895 -0.001,1.559 6.054,4.425 7.615,4.43 z"
             style="fill:none;stroke:#2e3436;stroke-width:5.34861;stroke-linecap:square;stroke-linejoin:bevel;stroke-miterlimit:4;stroke-dasharray:none;stroke-opacity:1"
             id="path40" /></g><path
           d="m 277.637,133.738 -11.211,3.883 c -1.563,0.543 -3.242,5.106 -2.696,6.664 0.547,1.559 0.86,1.328 2.379,0.68 l 16.125,-6.86 c 1.524,-0.648 5.121,-1.054 4.575,-2.613 -0.547,-1.558 -7.61,-2.297 -9.172,-1.754 z"
           style="fill:#ffffff;fill-opacity:1;fill-rule:nonzero;stroke:none"
           id="path42" /><g
           id="g44"
           transform="matrix(-1,0.351434,-0.351434,-1,0,0)"><path
             d="m -212.191,-259.942 19.815,0.284 c 3.403,0.051 5.644,2.601 6.145,6.144 v 36.68 c -0.001,3.503 -2.74,6.142 -6.143,6.142 h -19.129 c -3.406,0.002 -9.184,-8.279 -9.175,-11.682 l 0.057,-25.851 c 0.009,-3.403 5.025,-11.765 8.43,-11.717 z"
             style="fill:none;stroke:#2e3436;stroke-width:5.34861;stroke-linecap:square;stroke-linejoin:bevel;stroke-miterlimit:4;stroke-dasharray:none;stroke-opacity:1"
             id="path46" /></g><path
           d="m 303.543,185.371 -19.914,6.68 c -3.422,1.144 -6.559,-0.617 -8.305,-3.985 l -12.89,-36.679 c -1.231,-3.504 0.582,-7.106 3.984,-8.301 l 19.129,-6.723 c 3.406,-1.199 12.094,5.051 13.281,8.457 l 9.027,25.871 c 1.188,3.407 -0.89,13.532 -4.312,14.68 z"
           style="fill:#ffffff;fill-opacity:1;fill-rule:nonzero;stroke:none"
           id="path48" /><g
           id="g50"
           transform="matrix(-1,0.351434,-0.351434,-1,0,0)"><path
             d="m -235.647,-255.396 13.136,-0.001 -0.001,41.164 h -13.137 z"
             style="fill:none;stroke:#2e3436;stroke-width:5.34861;stroke-linecap:square;stroke-linejoin:bevel;stroke-miterlimit:4;stroke-dasharray:none;stroke-opacity:1"
             id="path52" /></g><path
           d="m 325.402,172.582 -13.136,4.617 -14.465,-41.164 13.137,-4.617 z"
           style="fill:#555753;fill-opacity:1;fill-rule:nonzero;stroke:none"
           id="path54" /><g
           id="g56"
           transform="matrix(-1,0.351434,-0.351434,-1,0,0)"><path
             d="m -235.996,-259.085 h 13.727 c 0.953,-0.001 1.718,0.768 1.72,1.717 l 0.001,44.704 c -0.002,0.952 -0.768,1.718 -1.72,1.716 h -13.727 c -0.95,0.002 -1.716,-0.763 -1.717,-1.717 v -44.703 c 10e-4,-0.949 0.766,-1.715 1.716,-1.717 z"
             style="fill:none;stroke:#2e3436;stroke-width:5.34861;stroke-linecap:square;stroke-linejoin:bevel;stroke-miterlimit:4;stroke-dasharray:none;stroke-opacity:1"
             id="path58" /></g><g
           id="g60"
           transform="matrix(-1,0.351434,-0.351434,-1,0,0)"><path
             d="m -210.885,-256.499 c 3.241,-0.63 7.204,-0.437 11.074,-0.233 0.843,0.046 2.072,1.451 2.072,1.451 l -15.468,0.431 c 0,0 1.357,-1.46 2.322,-1.649 z"
             style="fill:none;stroke:#2e3436;stroke-width:5.34861;stroke-linecap:square;stroke-linejoin:bevel;stroke-miterlimit:4;stroke-dasharray:none;stroke-opacity:1"
             id="path62" /></g><path
           d="m 301.027,182.387 c -3.019,1.769 -7.05,2.968 -10.992,4.125 -0.859,0.25 -2.582,-0.723 -2.582,-0.723 l 15.317,-5.867 c 0,0 -0.844,1.937 -1.743,2.465 z"
           style="fill:#2e3436;fill-opacity:1;fill-rule:nonzero;stroke:none"
           id="path64" /><g
           id="g66"
           transform="matrix(-1,0.351434,-0.351434,-1,0,0)"><path
             d="m -210.883,-213.9 c 3.238,0.634 7.202,0.437 11.074,0.235 0.841,-0.048 2.072,-1.451 2.072,-1.451 l -15.47,-0.429 c 0,0 1.359,1.458 2.324,1.645 z"
             style="fill:none;stroke:#2e3436;stroke-width:5.34861;stroke-linecap:square;stroke-linejoin:bevel;stroke-miterlimit:4;stroke-dasharray:none;stroke-opacity:1"
             id="path68" /></g><path
           d="m 286.055,139.789 c -3.461,0.504 -7.356,2.094 -11.157,3.656 -0.824,0.344 -1.562,2.18 -1.562,2.18 l 15.621,-5.008 c 0,0 -1.871,-0.98 -2.902,-0.828 z"
           style="fill:#2e3436;fill-opacity:1;fill-rule:nonzero;stroke:none"
           id="path70" /><g
           id="g72"
           transform="matrix(-1,0.351434,-0.351434,-1,0,0)"><path
             d="m -208.836,-255.615 h 2.566 l 2.57,0.001 c 5.039,0.001 5.962,-1.616 11.017,5.387 2.721,3.773 7.173,7.767 7.175,12.807 l -10e-4,2.238 0.002,2.239 c -0.001,5.038 -2.525,8.253 -5.531,11.802 -6.699,7.904 -7.623,6.387 -12.663,6.39 h -2.567 l -2.57,-0.001 c -5.038,-10e-4 -7.298,-2.385 -10.588,-5.674 -3.289,-3.289 -3.449,-6.591 -6.103,-10.876 -0.926,-1.501 -1.642,-2.452 -1.499,-3.882 -0.071,-1.287 0.448,-2.03 1.5,-4.023 3.174,-6.021 2.958,-7.73 6.247,-11.02 3.288,-3.286 5.405,-5.385 10.445,-5.388 z"
             style="fill:none;stroke:#2e3436;stroke-width:5.34861;stroke-linecap:square;stroke-linejoin:bevel;stroke-miterlimit:4;stroke-dasharray:none;stroke-opacity:1"
             id="path74" /></g><path
           d="m 298.668,182.223 -2.566,0.902 -2.571,0.902 c -5.039,1.77 -5.394,3.711 -12.91,-1.515 -4.047,-2.817 -9.902,-5.246 -11.676,-10.285 l -0.785,-2.239 -0.789,-2.238 c -1.769,-5.039 -0.375,-9.141 1.383,-13.746 3.922,-10.258 5.379,-9.066 10.418,-10.84 l 2.566,-0.902 2.571,-0.903 c 5.039,-1.769 8.136,-0.179 12.582,1.953 4.445,2.133 5.765,5.379 9.925,8.731 1.454,1.176 2.504,1.875 2.864,3.355 0.523,1.262 0.265,2.188 -0.086,4.551 -1.059,7.137 -0.242,8.77 -2.375,13.215 -2.133,4.441 -3.512,7.285 -8.551,9.059 z"
           style="fill:#ffffff;fill-opacity:1;fill-rule:nonzero;stroke:none"
           id="path76" /><g
           id="g78"
           transform="matrix(-1,0.351434,-0.351434,-1,0,0)"><path
             d="m -188.911,-244.788 c 1.169,-0.003 3.403,5.133 3.423,6.3 l 0.098,6.812 c 0.02,1.167 -2.049,6.452 -3.218,6.455 -1.168,0 0.951,-4.529 0.975,-5.696 l 0.152,-8.38 c 0.019,-1.166 -2.598,-5.491 -1.429,-5.494 z"
             style="fill:none;stroke:#2e3436;stroke-width:5.34861;stroke-linecap:square;stroke-linejoin:bevel;stroke-miterlimit:4;stroke-dasharray:none;stroke-opacity:1"
             id="path80" /></g><path
           d="m 274.938,178.398 c -1.168,0.414 -5.208,-3.937 -5.637,-5.097 l -2.492,-6.778 c -0.43,-1.16 -0.219,-7.171 0.949,-7.585 1.168,-0.411 0.64,4.863 1.027,6.039 l 2.793,8.433 c 0.391,1.172 4.527,4.578 3.36,4.992 z"
           style="fill:#2e3436;fill-opacity:1;fill-rule:nonzero;stroke:none"
           id="path82" /><g
           id="g84"
           transform="matrix(-1,0.351434,-0.351434,-1,0,0)"><path
             d="m -210.09,-249.125 h 9.649 c 9.64,0.001 11.328,6.192 11.327,13.973 0.002,7.777 -2.26,14.112 -11.327,14.113 h -9.648 c -7.778,10e-4 -14.041,-6.263 -14.041,-14.044 -0.001,-7.778 6.263,-14.041 14.04,-14.042 z"
             style="fill:none;stroke:#2e3436;stroke-width:5.34861;stroke-linecap:square;stroke-linejoin:bevel;stroke-miterlimit:4;stroke-dasharray:none;stroke-opacity:1"
             id="path86" /></g></g></g></g></svg>
