<?xml version="1.0" encoding="UTF-8" standalone="no"?>
<svg
   xmlns:dc="http://purl.org/dc/elements/1.1/"
   xmlns:cc="http://creativecommons.org/ns#"
   xmlns:rdf="http://www.w3.org/1999/02/22-rdf-syntax-ns#"
   xmlns:svg="http://www.w3.org/2000/svg"
   xmlns="http://www.w3.org/2000/svg"
   xmlns:sodipodi="http://sodipodi.sourceforge.net/DTD/sodipodi-0.dtd"
   xmlns:inkscape="http://www.inkscape.org/namespaces/inkscape"
   version="1.1"
   id="mdi-robot-outline"
   width="24"
   height="24"
   viewBox="0 0 24 24"
   sodipodi:docname="robot-outline-white.svg"
   inkscape:version="1.0.1 (0767f8302a, 2020-10-17)">
  <metadata
     id="metadata9">
    <rdf:RDF>
      <cc:Work
         rdf:about="">
        <dc:format>image/svg+xml</dc:format>
        <dc:type
           rdf:resource="http://purl.org/dc/dcmitype/StillImage" />
      </cc:Work>
    </rdf:RDF>
  </metadata>
  <defs
     id="defs7" />
  <sodipodi:namedview
     pagecolor="#ffffff"
     bordercolor="#666666"
     borderopacity="1"
     objecttolerance="10"
     gridtolerance="10"
     guidetolerance="10"
     inkscape:pageopacity="0"
     inkscape:pageshadow="2"
     inkscape:window-width="823"
     inkscape:window-height="480"
     id="namedview5"
     showgrid="false"
     inkscape:zoom="15.3125"
     inkscape:cx="17.687852"
     inkscape:cy="14.799566"
     inkscape:window-x="2843"
     inkscape:window-y="149"
     inkscape:window-maximized="0"
     inkscape:current-layer="mdi-robot-outline" />
  <path
     d="m 17.5,15.5 c 0,1.11 -0.89,2 -2,2 -1.11,0 -2,-0.89 -2,-2 0,-1.11 0.9,-2 2,-2 1.1,0 2,0.9 2,2 m -9,-2 c -1.1,0 -2,0.9 -2,2 0,1.1 0.9,2 2,2 1.1,0 2,-0.89 2,-2 0,-1.11 -0.8900001,-2 -2,-2 M 23,15 v 3 c 0,0.55 -0.45,1 -1,1 h -1 v 1 c 0,1.11 -0.89,2 -2,2 H 5 C 3.9,22 3,21.11 3,20 V 19 H 2 C 1.45,19 1,18.55 1,18 V 15 C 1,14.45 1.45,14 2,14 H 3 C 3,10.13 6.13,7 9.9999998,7 H 11 V 5.73 C 10.4,5.39 9.9999998,4.74 9.9999998,4 9.9999998,2.9 10.9,2 12,2 c 1.1,0 2,0.9 2,2 0,0.74 -0.4,1.39 -1,1.73 V 7 h 1 c 3.87,0 7,3.13 7,7 h 1 c 0.55,0 1,0.45 1,1 m -2,1 H 19 V 14 C 19,11.24 16.76,9 14,9 H 9.9999998 C 7.2399999,9 5,11.24 5,14 v 2 H 3 v 1 h 2 v 3 h 14 v -3 h 2 z"
     id="path2"
     style="fill:#ffffff;stroke-width:1" />
</svg>
