<?xml version="1.0" encoding="UTF-8" standalone="no"?>
<svg
   xmlns:dc="http://purl.org/dc/elements/1.1/"
   xmlns:cc="http://creativecommons.org/ns#"
   xmlns:rdf="http://www.w3.org/1999/02/22-rdf-syntax-ns#"
   xmlns:svg="http://www.w3.org/2000/svg"
   xmlns="http://www.w3.org/2000/svg"
   xmlns:sodipodi="http://sodipodi.sourceforge.net/DTD/sodipodi-0.dtd"
   xmlns:inkscape="http://www.inkscape.org/namespaces/inkscape"
   viewBox="0 0 36 36"
   version="1.1"
   id="svg6"
   sodipodi:docname="again.svg"
   inkscape:version="0.92.5 (2060ec1f9f, 2020-04-08)">
  <metadata
     id="metadata12">
    <rdf:RDF>
      <cc:Work
         rdf:about="">
        <dc:format>image/svg+xml</dc:format>
        <dc:type
           rdf:resource="http://purl.org/dc/dcmitype/StillImage" />
      </cc:Work>
    </rdf:RDF>
  </metadata>
  <defs
     id="defs10" />
  <sodipodi:namedview
     pagecolor="#ffffff"
     bordercolor="#666666"
     borderopacity="1"
     objecttolerance="10"
     gridtolerance="10"
     guidetolerance="10"
     inkscape:pageopacity="0"
     inkscape:pageshadow="2"
     inkscape:window-width="3840"
     inkscape:window-height="2050"
     id="namedview8"
     showgrid="false"
     inkscape:zoom="18.541911"
     inkscape:cx="51.92595"
     inkscape:cy="8.2310836"
     inkscape:window-x="1920"
     inkscape:window-y="54"
     inkscape:window-maximized="1"
     inkscape:current-layer="svg6" />
  <path
     fill="#3B88C3"
     d="M36 32c0 2.209-1.791 4-4 4H4c-2.209 0-4-1.791-4-4V4c0-2.209 1.791-4 4-4h28c2.209 0 4 1.791 4 4v28z"
     id="path2" />
  <path
     id="path822"
     d="m 24.234519,30.550703 h 6.316184 v -6.316184 h -6.316184 m 0,-3.158093 h 6.316184 v -6.316185 h -6.316184 m -9.474278,-3.158093 h 6.316185 V 5.2859638 h -6.316185 m 9.474278,6.3161842 h 6.316184 V 5.2859638 H 24.234519 M 14.760241,21.076426 h 6.316185 V 14.760241 H 14.760241 M 5.2859638,21.076426 H 11.602148 V 14.760241 H 5.2859638 m 0,15.790462 H 11.602148 V 24.234519 H 5.2859638 m 9.4742772,6.316184 h 6.316185 V 24.234519 H 14.760241 M 5.2859638,11.602148 H 11.602148 V 5.2859638 H 5.2859638 Z"
     inkscape:connector-curvature="0"
     style="fill:#ffffff;stroke-width:1.57904625" />
</svg>
