<?xml version="1.0" encoding="UTF-8" standalone="no"?>
<svg
   viewBox="0 0 36 36"
   version="1.1"
   id="svg6"
   sodipodi:docname="stop.svg"
   inkscape:version="1.1 (ce6663b3b7, 2021-05-25)"
   xmlns:inkscape="http://www.inkscape.org/namespaces/inkscape"
   xmlns:sodipodi="http://sodipodi.sourceforge.net/DTD/sodipodi-0.dtd"
   xmlns="http://www.w3.org/2000/svg"
   xmlns:svg="http://www.w3.org/2000/svg">
  <defs
     id="defs10" />
  <sodipodi:namedview
     id="namedview8"
     pagecolor="#ffffff"
     bordercolor="#666666"
     borderopacity="1.0"
     inkscape:pageshadow="2"
     inkscape:pageopacity="0.0"
     inkscape:pagecheckerboard="0"
     showgrid="false"
     inkscape:zoom="20.916667"
     inkscape:cx="8.5816733"
     inkscape:cy="17.976096"
     inkscape:window-width="1920"
     inkscape:window-height="1025"
     inkscape:window-x="960"
     inkscape:window-y="27"
     inkscape:window-maximized="1"
     inkscape:current-layer="svg6" />
  <path
     id="path2"
     style="fill:#3b88c3;fill-opacity:0.60000002"
     d="M 4 0 C 1.791 0 0 1.791 0 4 L 0 32 C 0 34.209 1.791 36 4 36 L 32 36 C 34.209 36 36 34.209 36 32 L 36 4 C 36 1.791 34.209 0 32 0 L 4 0 z M 10 5 L 18 5 C 24.074 5 29 9.925 29 16 C 29 22.074 24.074 27 18 27 L 14 27 L 14 31 L 6.8007812 25 L 14 19 L 14 23 L 18 23 C 21.865 23 25 19.865 25 16 C 25 12.137 21.869766 9.005 18.009766 9 L 10 9 L 10 5 z " />
  <path
     fill="#FFF"
     d="M18 5h-8v4h8.01c3.86.005 6.99 3.137 6.99 7 0 3.865-3.135 7-7 7h-4v-4l-7.2 6 7.2 6v-4h4c6.074 0 11-4.926 11-11 0-6.075-4.926-11-11-11z"
     id="path4"
     style="fill:#ffffff;fill-opacity:0.60000002" />
</svg>
