<?xml version="1.0" encoding="UTF-8" standalone="no"?>
<svg
   xmlns:dc="http://purl.org/dc/elements/1.1/"
   xmlns:cc="http://creativecommons.org/ns#"
   xmlns:rdf="http://www.w3.org/1999/02/22-rdf-syntax-ns#"
   xmlns:svg="http://www.w3.org/2000/svg"
   xmlns="http://www.w3.org/2000/svg"
   xmlns:sodipodi="http://sodipodi.sourceforge.net/DTD/sodipodi-0.dtd"
   xmlns:inkscape="http://www.inkscape.org/namespaces/inkscape"
   viewBox="0 0 36 36"
   version="1.1"
   id="svg6"
   sodipodi:docname="stop.svg"
   inkscape:version="0.92.5 (2060ec1f9f, 2020-04-08)">
  <metadata
     id="metadata12">
    <rdf:RDF>
      <cc:Work
         rdf:about="">
        <dc:format>image/svg+xml</dc:format>
        <dc:type
           rdf:resource="http://purl.org/dc/dcmitype/StillImage" />
        <dc:title></dc:title>
      </cc:Work>
    </rdf:RDF>
  </metadata>
  <defs
     id="defs10" />
  <sodipodi:namedview
     pagecolor="#ffffff"
     bordercolor="#666666"
     borderopacity="1"
     objecttolerance="10"
     gridtolerance="10"
     guidetolerance="10"
     inkscape:pageopacity="0"
     inkscape:pageshadow="2"
     inkscape:window-width="3840"
     inkscape:window-height="2050"
     id="namedview8"
     showgrid="false"
     inkscape:zoom="18.541911"
     inkscape:cx="50.216033"
     inkscape:cy="26.849111"
     inkscape:window-x="1920"
     inkscape:window-y="54"
     inkscape:window-maximized="1"
     inkscape:current-layer="svg6" />
  <g
     id="g839"
     transform="matrix(0.94674816,0,0,0.94674816,4.8182924,0.16670891)">
    <path
       id="path822"
       d="m 20.5,2.965 c -1.381,0 -2.5,1.119 -2.5,2.5 V 5.47 L 15.5,0.465 c -1.381,0 -2.5,1.119 -2.5,2.5 V 4.25 L 10.5,2.715 C 9.119,2.715 8,3.834 8,5.215 V 8.75 L 7,18 h 13.542 z"
       inkscape:connector-curvature="0"
       style="fill:#ef9645" />
    <path
       id="path824"
       d="m 31.375,16.219 c -1.381,-0.611 -3.354,0.208 -4.75,2.188 -0.917,1.3 -1.187,3.151 -2.391,3.344 C 23.774,21.824 23,21.438 23,20.354 V 4.5 c 0,0 0,-2 -2,-2 -2,0 -2,2 -2,2 v 11.633 c 0,-0.029 -1,-0.064 -1,-0.082 V 2 c 0,0 0,-2 -2,-2 -2,0 -2,2 -2,2 v 14.053 c 0,0.017 -1,0.041 -1,0.069 V 4.25 c 0,0 0,-2 -2,-2 -2,0 -2,2 -2,2 v 12.638 c 0,0.118 -1,0.251 -1,0.398 V 8.75 c 0,0 0,-2 -2,-2 -2,0 -2,2 -2,2 V 24 c 0,6.627 5.373,12 12,12 4.775,0 8.06,-2.598 9.896,-5.292 1.557,-2.285 2.009,-4.658 2.104,-5.375 0,0 0.123,-1.479 1.156,-2.865 1.469,-1.969 2.5,-3.156 3.125,-3.866 0.317,-0.358 0.625,-1.706 -0.906,-2.383 z"
       inkscape:connector-curvature="0"
       style="fill:#ffdc5d" />
    <path
       id="path826"
       d="m 23.439,21.471 c -0.297,-0.266 -0.372,-0.552 -0.417,-0.808 -1.892,0.259 -4.457,0.789 -6.427,2.715 -2.556,2.499 -2.992,5.2 -2.971,7.007 0.017,1.457 0.812,2.147 1.045,-0.012 0.292,-2.706 2.254,-8.063 8.784,-8.58 0.028,-0.002 0.387,-0.024 0.591,-0.035 0,0 -0.352,-0.06 -0.605,-0.287 z"
       inkscape:connector-curvature="0"
       style="fill:#ef9645" />
  </g>
  <g
     id="g843"
     transform="matrix(0.39326643,0,0,0.39326643,0,21.842409)">
    <path
       style="fill:#ef9645;fill-opacity:1"
       id="path2"
       d="m 36,32 c 0,2.209 -1.791,4 -4,4 H 4 C 1.791,36 0,34.209 0,32 V 4 C 0,1.791 1.791,0 4,0 h 28 c 2.209,0 4,1.791 4,4 z"
       inkscape:connector-curvature="0" />
    <path
       inkscape:connector-curvature="0"
       style="fill:#ffdc5d;fill-opacity:1;stroke-width:0.79898119"
       id="path4"
       d="M 9.2112068,9.2112068 H 26.788793 V 26.788793 H 9.2112068 Z" />
  </g>
</svg>
